<svg xmlns="http://www.w3.org/2000/svg" width="34.736" height="39.502" viewBox="0 0 34.736 39.502">
  <g id="shopify-logo-svgrepo-com" transform="translate(-0.038 -0.779)">
    <path id="Path_23079" data-name="Path 23079" d="M30.462,8.47a.382.382,0,0,0-.345-.321c-.143-.012-3.18-.237-3.18-.237S24.828,5.819,24.6,5.588a.96.96,0,0,0-.859-.109l-1.18.364c-.7-2.027-1.948-3.89-4.134-3.89-.06,0-.123,0-.185.006A2.658,2.658,0,0,0,16.18.779c-5.094,0-7.528,6.369-8.292,9.6L4.323,11.49c-1.1.347-1.14.381-1.285,1.423-.109.788-3,23.147-3,23.147l22.529,4.221L34.774,37.64S30.489,8.669,30.462,8.47ZM21.312,6.228l-1.906.59c0-.134,0-.267,0-.411a9.351,9.351,0,0,0-.455-3.078C20.079,3.47,20.829,4.752,21.312,6.228ZM17.554,3.578a9.45,9.45,0,0,1,.517,3.432c0,.078,0,.149,0,.221L14.133,8.45c.758-2.926,2.179-4.339,3.421-4.872ZM16.041,2.145a1.151,1.151,0,0,1,.653.221c-1.633.768-3.383,2.7-4.122,6.567L9.46,9.9c.866-2.947,2.921-7.752,6.58-7.752Z" fill="#95bf46"/>
    <path id="Path_23080" data-name="Path 23080" d="M173.273,37.754c-.143-.012-3.18-.237-3.18-.237s-2.109-2.093-2.34-2.325a.578.578,0,0,0-.326-.149l-1.7,34.843,12.206-2.64s-4.285-28.972-4.312-29.17a.382.382,0,0,0-.345-.321" transform="translate(-143.156 -29.604)" fill="#5e8e3e"/>
    <path id="Path_23081" data-name="Path 23081" d="M52.278,100.837l-1.505,4.477a6.924,6.924,0,0,0-2.935-.7c-2.37,0-2.489,1.487-2.489,1.862,0,2.045,5.33,2.828,5.33,7.618,0,3.768-2.39,6.195-5.613,6.195a7.809,7.809,0,0,1-5.845-2.407l1.035-3.421S42.289,116.2,44,116.2a1.512,1.512,0,0,0,1.577-1.527c0-2.667-4.373-2.786-4.373-7.169,0-3.689,2.648-7.259,7.993-7.259a6.576,6.576,0,0,1,3.077.59" transform="translate(-33.855 -85.942)" fill="#fff"/>
  </g>
</svg>
